<!-- Generator: Adobe Illustrator 19.1.0, SVG Export Plug-In . SVG Version: 6.00 Build 0)  -->
<svg version="1.1" id="Layer_1" xmlns="http://www.w3.org/2000/svg" xmlns:xlink="http://www.w3.org/1999/xlink" x="0px" y="0px"
	 viewBox="0 0 408 225.2" style="enable-background:new 0 0 408 225.2;" xml:space="preserve">
<style type="text/css">
	.st0{fill:#CC2A2E;}
</style>
<g>
	<g>
		<g>
			<path d="M30.9,225c-20.3,0-30.5-14.6-30.5-30.8c0-16.1,10.6-30.6,30.7-30.6c7.7,0,13.2,1.7,17.9,4.7l-5.8,9.5
				c-3.3-2.1-6.9-3.4-12.3-3.4c-10.9,0-16.7,8.7-16.7,19.5c0,11.1,5.6,20.3,16.9,20.3c6.4,0,10.2-2.2,13.3-4.5l5.3,9.1
				C46.7,221.5,39.5,225,30.9,225z"/>
			<path d="M73.9,188.5c-6.5,0-8.6,5.5-8.6,13.5c0,8,2.6,13.7,9.1,13.7c6.6,0,8.8-5.4,8.8-13.4C83.2,194.4,80.5,188.5,73.9,188.5z
				 M74.2,225c-15.2,0-21.8-11.4-21.8-22.6c0-11.2,6.6-22.9,21.8-22.9c15.2,0,22.1,11.3,22.1,22.5C96.2,213,89.4,225,74.2,225z"/>
			<path d="M115.4,180.5v27.8c0,4.3,1.5,6.4,5.6,6.4c4.4,0,7.7-4.2,8.6-5.2v-29h12.2v30.6c0,5.7,0.6,10.1,1.2,12.7H131
				c-0.4-1.2-0.8-4-0.9-5.8c-2.3,3-6.8,6.8-14,6.8c-9.6,0-13-6.1-13-14.1v-30.3H115.4z"/>
			<path d="M171.9,225c-14,0-22.6-9.1-22.6-22.7c0-14.6,9.7-22.8,23-22.8c7,0,11.2,2.1,13.3,3.4l-3.9,8.4c-1.9-1.2-4.7-2.5-9-2.5
				c-6.8,0-10.4,5.3-10.4,13.2c0,7.9,3.4,13.6,10.7,13.6c5,0,7.9-1.8,9.2-2.6l3.7,8.2C183.8,222.4,179.8,225,171.9,225z"/>
			<path d="M218.6,223.9v-27.8c0-4.3-1.5-6.4-5.6-6.4c-4.4,0-7.8,4.1-8.7,5.2v29h-12.2v-64h12.2v25.8c2.2-2.4,6.4-6.2,13.5-6.2
				c9.6,0,13,6.1,13,14.1v30.3H218.6z"/>
			<path d="M253.1,214.5c0.8,0.3,2.6,0.9,5.8,0.9c6.3,0,10.2-4.6,10.2-13.5c0-8-2.7-12.8-8.9-12.8c-3.6,0-6.4,2.3-7.1,3.2V214.5z
				 M253.1,159.9v24c2-2,5.8-4.5,10.6-4.5c10.8,0,18.4,7.4,18.4,22.4c0,14.9-10,23.1-23.2,23.1c-9.9,0-15.9-2.5-18.1-3.5v-61.6
				H253.1z"/>
			<path d="M311.1,204.8h-1.5c-6.7,0-11.4,2-11.4,6.9c0,3.1,2.5,4.4,5.2,4.4c4.1,0,6.5-2.4,7.7-3.6V204.8z M312.5,223.9
				c-0.4-1.1-0.6-3.3-0.7-4.6c-1.9,2.3-6,5.7-12.1,5.7c-7.4,0-13.1-4.4-13.1-12.2c0-11.3,11.6-15.4,23.1-15.4h1.5v-2.4
				c0-3.6-1.5-5.8-6.9-5.8c-5.6,0-9.4,2.9-11,4l-5.3-7.4c2.6-2.4,8.4-6.3,17.7-6.3c12,0,17.7,4.6,17.7,16.2v15.2
				c0,6,0.6,10.2,1.2,13H312.5z"/>
			<path d="M345.3,225c-7.8,0-12.8-2.3-15.5-4.1l4.1-8.5c1.7,1.2,5.9,3.6,10.7,3.6c4.5,0,7-1.3,7-3.7c0-2.8-4.9-3.6-11.1-6.6
				c-6-2.9-9.5-6.2-9.5-12.8c0-8.2,6.5-13.4,16.4-13.4c7.4,0,12,2.3,14,3.4l-4.2,8.3c-1.7-1-5.1-2.7-9.2-2.7c-4.1,0-5.9,1.4-5.9,3.7
				c0,2.8,4,3.5,9,5.5c6.8,2.8,11.7,6,11.7,13.2C362.7,220.2,356.1,225,345.3,225z"/>
			<path d="M395.7,196.9c-0.1-4.8-2-8.7-7.2-8.7c-4.8,0-7.6,3.1-8.4,8.7H395.7z M391,215.9c5.9,0,9.1-1.9,11.3-3l3.9,7.8
				c-2.9,1.6-7.3,4.2-16.3,4.2c-14.6,0-22.9-9.1-22.9-23c0-13.8,9.5-22.5,21.6-22.5c13.7,0,20.3,9.5,18.8,25.7h-27.3
				C380.7,211.6,384,215.9,391,215.9z"/>
		</g>
	</g>
	<path class="st0" d="M204,0.5c-36.5,0-66.2,29.6-66.2,66.2c0,36.5,29.6,66.2,66.2,66.2c36.5,0,66.2-29.6,66.2-66.2
		C270.2,30.2,240.5,0.5,204,0.5z M248.7,78.3c0,4-2.3,7.5-6.8,8.3c-7.8,1.4-24.2,2.2-37.9,2.2c-13.7,0-30.1-0.8-37.9-2.2
		c-4.5-0.8-6.8-4.3-6.8-8.3c0-8.6,0-17.2,0-25.8c0-4,3.1-7.7,6.8-8.3c2.3-0.4,7.7-0.8,11.9-0.8c1.6,0,2.9,1.2,2.9,3.1
		c0,0,0,18.1,0,18.1c8.1,0,15.1-0.5,23.2-0.5c8.1,0,15.1,0.5,23.2,0.5c0,0,0-18.1,0-18.1c0-1.9,1.3-3.1,2.9-3.1
		c4.2,0,9.6,0.4,11.9,0.8c3.8,0.6,6.8,4.3,6.8,8.3C248.7,61.1,248.7,69.7,248.7,78.3z"/>
</g>
</svg>
