<svg xmlns="http://www.w3.org/2000/svg" width="512" height="512" viewBox="0 0 512 512"><path fill="#ffffff" d="M256 67.359c-104.758 0-190 84.955-190 190 0 104.758 84.955 190 190 190 104.758 0 190-84.955 190-190s-85.242-190-190-190zm128.293 223.293c0 11.48-6.601 21.526-19.517 23.822-22.387 4.018-69.456 6.314-108.776 6.314-39.32 0-86.39-2.296-108.777-6.314-12.915-2.296-19.517-12.341-19.517-23.822v-74.048c0-11.48 8.897-22.1 19.517-23.822 6.601-1.148 22.1-2.296 34.154-2.296 4.592 0 8.323 3.444 8.323 8.897v51.949l66.586-1.435 66.586 1.435v-51.949c0-5.453 3.731-8.897 8.323-8.897 12.054 0 27.553 1.148 34.154 2.296 10.906 1.722 19.517 12.341 19.517 23.822-.573 24.395-.573 49.365-.573 74.048z"/></svg>
