<?xml version="1.0" standalone="no"?>
<!DOCTYPE svg PUBLIC "-//W3C//DTD SVG 20010904//EN"
 "http://www.w3.org/TR/2001/REC-SVG-20010904/DTD/svg10.dtd">
<svg version="1.0" xmlns="http://www.w3.org/2000/svg"
 width="360.000000pt" height="360.000000pt" viewBox="0 0 360.000000 360.000000"
 preserveAspectRatio="xMidYMid meet">
<metadata>
Created by potrace 1.11, written by Peter Selinger 2001-2013
</metadata>
<g transform="translate(0.000000,360.000000) scale(0.100000,-0.100000)"
fill="#000000" stroke="none">
<path d="M480 3585 c-228 -56 -412 -241 -465 -467 -14 -60 -15 -217 -13 -1345
l3 -1278 27 -73 c74 -204 247 -360 450 -407 60 -14 217 -15 1345 -13 l1278 3
73 27 c186 68 333 217 393 399 l24 74 0 1295 0 1295 -24 74 c-60 182 -207 331
-393 399 l-73 27 -1285 2 c-1050 1 -1295 -1 -1340 -12z m1560 -412 c496 -80
926 -452 1085 -937 91 -279 91 -593 0 -872 -136 -416 -473 -753 -889 -889
-279 -91 -593 -91 -872 0 -416 136 -753 473 -889 889 -91 279 -91 593 0 872
153 468 558 830 1040 930 169 35 339 37 525 7z"/>
<path d="M1087 2289 c-117 -10 -160 -28 -202 -88 l-30 -43 -3 -316 c-3 -351 0
-377 59 -426 36 -31 75 -41 199 -55 361 -41 1019 -41 1380 0 165 18 207 38
241 113 17 37 19 71 19 354 0 346 -1 355 -63 409 -44 39 -104 52 -248 55 -156
4 -149 16 -149 -237 l0 -201 -485 0 -485 0 0 182 c0 279 6 273 -233 253z"/>
</g>
</svg>
