<?xml version="1.0" standalone="no"?>
<!DOCTYPE svg PUBLIC "-//W3C//DTD SVG 20010904//EN"
 "http://www.w3.org/TR/2001/REC-SVG-20010904/DTD/svg10.dtd">
<svg version="1.0" xmlns="http://www.w3.org/2000/svg"
 width="260.000000pt" height="260.000000pt" viewBox="0 0 260.000000 260.000000"
 preserveAspectRatio="xMidYMid meet">
<metadata>
Created by potrace 1.11, written by Peter Selinger 2001-2013
</metadata>
<g transform="translate(0.000000,260.000000) scale(0.100000,-0.100000)"
fill="#000000" stroke="none">
<path d="M1150 2593 c-321 -49 -549 -162 -765 -378 -265 -264 -389 -572 -380
-945 2 -80 6 -158 10 -175 21 -101 28 -128 51 -200 61 -192 163 -356 318 -510
197 -196 395 -303 667 -361 117 -25 380 -25 499 0 546 117 946 533 1034 1077
14 82 14 330 2 394 -4 17 -11 53 -16 80 -29 143 -104 317 -195 456 -64 96
-250 282 -344 343 -144 94 -314 167 -456 196 -27 5 -63 12 -80 16 -35 7 -308
13 -345 7z m-334 -841 c24 -4 33 -62 32 -217 0 -88 0 -167 1 -175 1 -13 58
-15 453 -14 l453 0 1 189 c2 234 -4 225 141 219 169 -6 212 -20 253 -81 l25
-37 1 -294 c1 -162 -2 -308 -7 -325 -18 -63 -73 -101 -159 -112 -30 -3 -62 -8
-70 -10 -14 -4 -100 -10 -275 -21 -115 -7 -590 -7 -725 0 -226 11 -389 30
-430 51 -39 20 -67 56 -78 100 -17 64 -13 572 5 615 28 70 72 98 166 107 34 3
63 6 64 7 3 2 131 0 149 -2z"/>
</g>
</svg>
